<svg width="14" height="14" viewBox="0 0 14 14" fill="none" xmlns="http://www.w3.org/2000/svg">
<path d="M7.00001 13.1167L6.03334 12.25C4.91112 11.2389 3.98334 10.3667 3.25001 9.63333C2.51668 8.9 1.93334 8.24167 1.50001 7.65833C1.06668 7.075 0.763899 6.53889 0.591677 6.05C0.419455 5.56111 0.333344 5.06111 0.333344 4.55C0.333344 3.50555 0.683344 2.63333 1.38334 1.93333C2.08334 1.23333 2.95557 0.883331 4.00001 0.883331C4.57779 0.883331 5.12779 1.00555 5.65001 1.25C6.17223 1.49444 6.62223 1.83889 7.00001 2.28333C7.37779 1.83889 7.82779 1.49444 8.35001 1.25C8.87223 1.00555 9.42223 0.883331 10 0.883331C11.0445 0.883331 11.9167 1.23333 12.6167 1.93333C13.3167 2.63333 13.6667 3.50555 13.6667 4.55C13.6667 5.06111 13.5806 5.56111 13.4083 6.05C13.2361 6.53889 12.9333 7.075 12.5 7.65833C12.0667 8.24167 11.4833 8.9 10.75 9.63333C10.0167 10.3667 9.0889 11.2389 7.96668 12.25L7.00001 13.1167Z" fill="#FF584E"/>
</svg>
