<svg width="20" height="20" viewBox="0 0 20 20" fill="none" xmlns="http://www.w3.org/2000/svg">
<path d="M10 19.175L8.55 17.875C6.86667 16.3583 5.475 15.05 4.375 13.95C3.275 12.85 2.4 11.8625 1.75 10.9875C1.1 10.1125 0.645833 9.30835 0.3875 8.57501C0.129167 7.84168 0 7.09168 0 6.32501C0 4.75835 0.525 3.45001 1.575 2.40001C2.625 1.35001 3.93333 0.825012 5.5 0.825012C6.36667 0.825012 7.19167 1.00835 7.975 1.37501C8.75833 1.74168 9.43333 2.25835 10 2.92501C10.5667 2.25835 11.2417 1.74168 12.025 1.37501C12.8083 1.00835 13.6333 0.825012 14.5 0.825012C16.0667 0.825012 17.375 1.35001 18.425 2.40001C19.475 3.45001 20 4.75835 20 6.32501C20 7.09168 19.8708 7.84168 19.6125 8.57501C19.3542 9.30835 18.9 10.1125 18.25 10.9875C17.6 11.8625 16.725 12.85 15.625 13.95C14.525 15.05 13.1333 16.3583 11.45 17.875L10 19.175ZM10 16.475C11.6 15.0417 12.9167 13.8125 13.95 12.7875C14.9833 11.7625 15.8 10.8708 16.4 10.1125C17 9.35418 17.4167 8.67918 17.65 8.08751C17.8833 7.49585 18 6.90835 18 6.32501C18 5.32501 17.6667 4.49168 17 3.82501C16.3333 3.15835 15.5 2.82501 14.5 2.82501C13.7167 2.82501 12.9917 3.04585 12.325 3.48751C11.6583 3.92918 11.2 4.49168 10.95 5.17501H9.05C8.8 4.49168 8.34167 3.92918 7.675 3.48751C7.00833 3.04585 6.28333 2.82501 5.5 2.82501C4.5 2.82501 3.66667 3.15835 3 3.82501C2.33333 4.49168 2 5.32501 2 6.32501C2 6.90835 2.11667 7.49585 2.35 8.08751C2.58333 8.67918 3 9.35418 3.6 10.1125C4.2 10.8708 5.01667 11.7625 6.05 12.7875C7.08333 13.8125 8.4 15.0417 10 16.475Z" fill="#F6F6F6"/>
</svg>
