<svg width="48" height="48" viewBox="0 0 48 48" fill="none" xmlns="http://www.w3.org/2000/svg">
<rect width="48" height="48" rx="24" fill="#343434"/>
<path d="M27.0005 18.3833C27.9202 18.3834 28.6626 18.6862 29.2632 19.2867C29.8638 19.8873 30.1665 20.6304 30.1665 21.5503C30.1665 22.0039 30.0907 22.4481 29.937 22.8843C29.7866 23.311 29.5133 23.8023 29.0991 24.3599C28.6851 24.9173 28.1196 25.5572 27.397 26.2798C26.6721 27.0047 25.7512 27.8703 24.6333 28.8775L23.9995 29.4449L23.3677 28.8775C22.2497 27.8702 21.3289 27.0047 20.604 26.2798C19.8813 25.5571 19.3159 24.9173 18.9019 24.3599C18.4875 23.8021 18.2134 23.3111 18.063 22.8843C17.9093 22.4481 17.8335 22.0039 17.8335 21.5503C17.8335 20.6304 18.1362 19.8873 18.7368 19.2867C19.3375 18.686 20.0805 18.3833 21.0005 18.3833C21.505 18.3834 21.9824 18.4895 22.438 18.7027C22.8945 18.9164 23.2877 19.2165 23.6196 19.607L24.0005 20.0552L24.3813 19.607C24.7132 19.2166 25.1056 18.9163 25.562 18.7027C26.0177 18.4893 26.4958 18.3833 27.0005 18.3833Z" stroke="white"/>
</svg>
